# AST/ASF file generated using VICON BodyLanguage
# -----------------------------------------------
:version 1.10
:name VICON
:units
  mass 1.0
  length 0.45
  angle deg
:documentation
   .ast/.asf automatically generated from VICON data using
   VICON BodyBuilder and BodyLanguage model FoxedUp or BRILLIANT.MOD
:root
   order TX TY TZ RX RY RZ
   axis XYZ
   position 0 0 0  
   orientation 0 0 0 
:bonedata
  begin
     id 1 
     name lhipjoint
     direction 0.734343 -0.627749 0.258209 
     length 2.5437 
     axis 0 0 0  XYZ
  end
  begin
     id 2 
     name lfemur
     direction 0.34202 -0.939693 0  
     length 6.7391  
     axis 0 0 20  XYZ
    dof rx ry rz
    limits (-160.0 20.0)
           (-70.0 70.0)
           (-60.0 70.0)
  end
  begin
     id 3 
     name ltibia
     direction 0.34202 -0.939693 0   
     length 7.21536   
     axis 0 0 20   XYZ
    dof rx
    limits (-10.0 170.0)
  end
  begin
     id 4 
     name lfoot
     direction 0.0489572 -0.134509 0.989702   
     length 1.61313   
     axis -90 7.62852e-016 20   XYZ
    dof rx rz
    limits (-45.0 90.0)
           (-70.0 20.0)
  end
  begin
     id 5 
     name ltoes
     direction 1.53451e-011 -4.21692e-011 1   
     length 0.823104   
     axis -90 7.62852e-016 20   XYZ
    dof rx
    limits (-90.0 20.0)
  end
  begin
     id 6 
     name rhipjoint
     direction -0.746398 -0.615468 0.253157   
     length 2.59446  
     axis 0 0 0  XYZ 
  end
  begin
     id 7 
     name rfemur
     direction -0.34202 -0.939693 0   
     length 6.7075   
     axis 0 0 -20   XYZ
    dof rx ry rz
    limits (-160.0 20.0)
           (-70.0 70.0)
           (-70.0 60.0)
  end
  begin
     id 8 
     name rtibia
     direction -0.34202 -0.939693 0   
     length 7.27262   
     axis 0 0 -20   XYZ
    dof rx
    limits (-10.0 170.0)
 end
 begin
     id 9 
     name rfoot
     direction -0.0455203 -0.125066 0.991104   
     length 1.91095  
     axis -90 -7.62852e-016 -20   XYZ
    dof rx rz
    limits (-45.0 90.0)
           (-20.0 70.0)
  end
  begin
     id 10 
     name rtoes
     direction -1.53601e-011 -4.21913e-011 1   
     length 0.969037   
     axis -90 -7.62852e-016 -20   XYZ
    dof rx
    limits (-90.0 20.0)
  end
  begin
     id 11 
     name lowerback
     direction 0.0181546 0.999122 -0.0377542   
     length 1.99916   
     axis 0 0 0   XYZ
    dof rx ry rz
    limits (-20.0 45.0)
           (-30.0 30.0)
           (-30.0 30.0)
  end
  begin
     id 12 
     name upperback
     direction 0.0203486 0.99589 0.0882534   
     length 1.951   
     axis 0 0 0   XYZ
    dof rx ry rz
    limits (-20.0 45.0)
           (-30.0 30.0)
           (-30.0 30.0)
  end
  begin
     id 13 
     name thorax
     direction 0.0131685 0.994241 0.106355   
     length 1.97461   
     axis 0 0 0   XYZ
    dof rx ry rz
    limits (-20.0 45.0)
           (-30.0 30.0)
           (-30.0 30.0)
  end
  begin
     id 14 
     name lowerneck
     direction -0.0281395 0.999325 0.023617   
     length 1.7959   
     axis 0 0 0   XYZ
    dof rx ry rz
    limits (-20.0 45.0)
           (-30.0 30.0)
           (-30.0 30.0)
  end
  begin
     id 15 
     name upperneck
     direction 0.0288721 0.991984 -0.123019   
     length 1.79917   
     axis 0 0 0   XYZ
    dof rx ry rz
    limits (-20.0 45.0)
           (-30.0 30.0)
           (-30.0 30.0)
  end
  begin
     id 16
     name head
     direction 0.0133797 0.998944 -0.0439492  
     length 1.80902  
     axis 0 0 0   XYZ
    dof rx ry rz
    limits (-20.0 45.0)
           (-30.0 30.0)
           (-30.0 30.0)
  end
  begin
     id 17 
     name lclavicle
     direction 0.919195 0.377107 0.113449  
     length 3.17815  
     axis 0 0 0   XYZ
    dof ry rz
    limits (-20.0 10.0)
           (0.0 20.0)
  end
  begin
     id 18 
     name lhumerus
     direction 1 -4.48959e-011 2.13129e-027   
     length 4.84137   
     axis 180 -30 -90   XYZ
    dof rx ry rz
    limits (-60.0 90.0)
           (-90.0 90.0)
           (-90.0 90.0)
  end
  begin
     id 19
     name lradius
     direction 1 -4.48957e-011 -6.30627e-028   
     length 3.2452   
     axis 180 -30 -90   XYZ
    dof rx
    limits (-10.0 170.0)
  end
  begin
     id 20
     name lwrist
     direction 1 -4.4901e-011 9.13299e-027   
     length 1.6226   
     axis -6.84618e-015 90 90   XYZ
    dof ry
    limits (-180.0 0.0)
 end
  begin
     id 21 
     name lhand
     direction 1 -4.48816e-011 1.82293e-026   
     length 0.521221   
     axis -1.16502e-014 90 90   XYZ
    dof rx rz
    limits (-90.0 90.0)
           (-45.0 45.0)
  end
  begin
     id 22 
     name lfingers
     direction 1 -4.49108e-011 3.65687e-026   
     length 0.420221   
     axis -2.33008e-014 90 90   XYZ
    dof rx
    limits (0.0 90.0)
  end
  begin
     id 23
     name lthumb
     direction 0.707107 -6.34943e-011 0.707107   
     length 0.603356   
     axis -90 45 5.69224e-014   XYZ
    dof rx rz
    limits (-45.0 45.0)
           (-45.0 45.0)
  end
  begin
     id 24 
     name rclavicle
     direction -0.90847 0.38596 0.160368   
     length 3.12973  
     axis 0 0 0   XYZ 
    dof ry rz
    limits (-10.0 20.0)
           (-20.0 0.0)
  end
  begin
     id 25 
     name rhumerus
     direction -1 -4.48974e-011 4.47268e-028  
     length 4.72284   
     axis 180 30 90   XYZ
    dof rx ry rz
    limits (-90.0 60.0)
           (-90.0 90.0)
           (-90.0 90.0)
  end
  begin
     id 26 
     name rradius
     direction -1 -4.48969e-011 3.43203e-027   
     length 3.23459   
     axis 180 30 90   XYZ
    dof rx
    limits (-10.0 170.0)
  end
  begin
     id 27 
     name rwrist
     direction -1 -4.48969e-011 9.12911e-027   
     length 1.6173   
     axis -6.84618e-015 -90 -90   XYZ
    dof ry
    limits (-180.0 0.0)
  end
  begin
     id 28
     name rhand
     direction -1 -4.49194e-011 1.83006e-026   
     length 0.307416   
     axis -1.16502e-014 -90 -90   XYZ
    dof rx rz
    limits (-90.0 90.0)
           (-45.0 45.0)
  end
  begin
     id 29
     name rfingers
     direction -1 -4.48423e-011 3.63103e-026   
     length 0.247847   
     axis -2.33008e-014 -90 -90   XYZ
    dof rx
    limits (0.0 90.0)
  end
  begin
     id 30
     name rthumb
     direction -0.707107 -6.34802e-011 0.707107   
     length 0.35586   
     axis -90 -45 -5.69224e-014   XYZ
    dof rx rz
    limits (-45.0 45.0)
           (-45.0 45.0)
  end
:hierarchy
  begin
    root lhipjoint rhipjoint lowerback
    lhipjoint lfemur
    lfemur ltibia
    ltibia lfoot
    lfoot ltoes
    rhipjoint rfemur
    rfemur rtibia
    rtibia rfoot
    rfoot rtoes
    lowerback upperback
    upperback thorax
    thorax lowerneck lclavicle rclavicle
    lowerneck upperneck
    upperneck head
    lclavicle lhumerus
    lhumerus lradius
    lradius lwrist
    lwrist lhand lthumb
    lhand lfingers
    rclavicle rhumerus
    rhumerus rradius
    rradius rwrist
    rwrist rhand rthumb
    rhand rfingers
  end

#!OML:ASF H:\Terrain\Patient Classification 1\Animal1\Tuesday\Animal1.ASF
:FULLY-SPECIFIED
:DEGREES
427
root 9.85359 17.3095 -2.06653 11.9101 -7.34422 2.32081
lowerback -7.44373 0.342923 1.31497
upperback -3.71457 0.359599 0.343604
thorax 0.34635 0.163573 -0.357519
lowerneck -6.26353 1.08323 -6.34192
upperneck 18.0268 1.39773 5.09274
head 6.40544 0.651842 2.78949
rclavicle 1.25731e-014 -1.59028e-015
rhumerus -38.6085 6.34127 -91.8
rradius 14.5917
rwrist -29.9023
rhand -6.87155 18.5072
rfingers 7.12502
rthumb 18.9944 -10.5853
lclavicle 1.25731e-014 -1.59028e-015
lhumerus -44.4489 27.756 68.2529
lradius 12.7192
lwrist -31.4217
lhand 34.4633 43.9737
lfingers 7.12502
lthumb 57.6687 59.9888
rfemur -19.0416 12.8168 23.4343
rtibia 23.0705
rfoot -10.3336 -38.7247
rtoes 22.9633
lfemur -13.8494 -1.91886 -27.0078
ltibia 24.639
lfoot -1.55569 23.232
ltoes 15.0916
428
root 9.83958 17.2745 -2.02142 11.7002 -7.30633 2.42468
lowerback -7.15224 0.413382 1.22378
upperback -3.76267 0.464229 0.409434
thorax 0.136239 0.216499 -0.2329
lowerneck -6.39002 1.08713 -6.34666
upperneck 18.0549 1.40243 5.14668
head 6.43547 0.65958 2.81007
rclavicle 3.66509e-015 -7.15625e-015
rhumerus -38.2938 4.99254 -90.8047
rradius 13.955
rwrist -28.3317
rhand -7.0612 18.5116
rfingers 7.12502
rthumb 18.812 -10.5987
lclavicle 3.66509e-015 -7.15625e-015
lhumerus -44.2629 27.3272 68.7936
lradius 12.7764
lwrist -30.526
lhand 35.4487 44.556
lfingers 7.12502
lthumb 58.5274 59.7946
rfemur -18.9227 11.9451 23.5554
rtibia 23.5501
rfoot -6.55489 -38.4058
rtoes 16.3875
lfemur -13.719 -1.80399 -27.1616
ltibia 24.8546
lfoot -1.76799 23.3213
ltoes 16.7224
429
root 9.82547 17.2395 -1.96797 11.4628 -7.21168 2.41034
lowerback -6.91104 0.393985 1.2416
upperback -3.76113 0.441003 0.498943
thorax 0.00359547 0.204892 -0.154147
lowerneck -6.4311 1.15369 -6.44217
upperneck 17.929 1.48182 5.31892
head 6.39446 0.707125 2.88512
rclavicle -1.34677e-014 3.97569e-015
rhumerus -38.0159 3.80675 -89.9403
rradius 13.5089
rwrist -26.5061
rhand -7.31958 18.0838
rfingers 7.12502
rthumb 18.5634 -11.0505
lclavicle -1.34677e-014 3.97569e-015
lhumerus -44.2234 27.3417 68.9198
lradius 12.7926
lwrist -30.0289
lhand 37.3491 45.9485
lfingers 7.12502
lthumb 60.1637 59.5558
rfemur -18.7618 11.2751 23.6959
rtibia 24.2671
rfoot -6.76555 -37.4076
rtoes 16.5603
lfemur -13.3166 -1.69538 -27.1945
ltibia 24.7164
lfoot -1.89274 23.7357
ltoes 16.2293
430
root 9.81127 17.2185 -1.90852 11.2008 -7.03065 2.5144
lowerback -6.64357 0.315634 1.14283
upperback -3.80071 0.347397 0.526828
thorax -0.186913 0.158823 -0.0779637
lowerneck -6.32697 1.22102 -6.36909
upperneck 17.8185 1.55464 5.35285
head 6.33645 0.749833 2.88529
rclavicle 6.44808e-015 1.35174e-014
rhumerus -37.7565 2.40417 -88.9365
rradius 12.8021
rwrist -24.4522
rhand -7.0308 17.7001
rfingers 7.12502
rthumb 18.8412 -11.4074
lclavicle 6.44808e-015 1.35174e-014
lhumerus -44.266 27.086 69.1076
lradius 12.9275
lwrist -29.5235
lhand 37.2479 46.1061
lfingers 7.12502
lthumb 60.0773 59.805
rfemur -18.6265 10.7659 23.6214
rtibia 25.0887
rfoot -8.7486 -36.3828
rtoes 19.4207
lfemur -12.703 -1.70834 -27.3114
ltibia 24.2291
lfoot -2.9804 24.906
ltoes 17.7695
431
root 9.79854 17.2055 -1.85017 11.0728 -6.82906 2.77454
lowerback -6.55934 0.320558 0.935526
upperback -3.84125 0.367598 0.453128
thorax -0.275705 0.171057 -0.0367048
lowerneck -6.24809 1.20605 -6.20651
upperneck 17.6926 1.5129 5.34564
head 6.28658 0.740245 2.84955
rclavicle -4.47266e-016 5.56597e-015
rhumerus -37.6203 0.86859 -87.8776
rradius 12.4117
rwrist -22.8288
rhand -6.78622 17.5142
rfingers 7.12502
rthumb 19.0764 -11.5703
lclavicle -4.47266e-016 5.56597e-015
lhumerus -43.9671 26.4161 69.7508
lradius 12.9559
lwrist -29.1236
lhand 35.8827 46.155
lfingers 7.12502
lthumb 58.9035 61.0371
rfemur -18.6516 10.1757 23.3381
rtibia 25.8608
rfoot -11.3729 -35.1683
rtoes 22.6678
lfemur -12.2561 -2.04039 -27.5422
ltibia 23.4945
lfoot -4.93996 26.9425
ltoes 22.5935
432
root 9.78668 17.1853 -1.79665 11.178 -6.61722 2.90519
lowerback -6.75197 0.350115 0.817321
upperback -3.86733 0.41143 0.430334
thorax -0.196223 0.19486 0.00998405
lowerneck -6.24971 1.15693 -6.12334
upperneck 17.5057 1.43766 5.35958
head 6.23275 0.712147 2.83158
rclavicle -4.24281e-015 1.66979e-014
rhumerus -37.4967 0.0362421 -87.2288
rradius 12.3575
rwrist -22.1436
rhand -7.12648 17.4016
rfingers 7.12502
rthumb 18.7492 -11.7148
lclavicle -4.24281e-015 1.66979e-014
lhumerus -43.5477 26.0658 70.2813
lradius 12.8051
lwrist -29.3137
lhand 36.0317 47.0753
lfingers 7.12502
lthumb 59.0323 61.8329
rfemur -18.8212 9.38445 23.2609
rtibia 26.4688
rfoot -11.0082 -34.4473
rtoes 20.5097
lfemur -12.0874 -2.58229 -27.5953
ltibia 22.6608
lfoot -6.7647 29.0833
ltoes 25.7447
